TITLE ""
FILE "1Q_t_1039-1048.mp3" MP3
  TRACK 01 AUDIO
    TITLE "1Q_t_1039-1048_01"
    INDEX 01 00:00:00
  TRACK 02 AUDIO
    TITLE "1Q_t_1039-1048_02"
    INDEX 01 00:01:16
  TRACK 03 AUDIO
    TITLE "1Q_t_1039-1048_03"
    INDEX 01 00:01:23
  TRACK 04 AUDIO
    TITLE "1Q_t_1039-1048_04"
    INDEX 01 00:02:52
  TRACK 05 AUDIO
    TITLE "1Q_t_1039-1048_05"
    INDEX 01 00:02:58
  TRACK 06 AUDIO
    TITLE "1Q_t_1039-1048_06"
    INDEX 01 00:07:10
  TRACK 07 AUDIO
    TITLE "1Q_t_1039-1048_07"
    INDEX 01 00:07:57
  TRACK 08 AUDIO
    TITLE "1Q_t_1039-1048_08"
    INDEX 01 00:09:03
  TRACK 09 AUDIO
    TITLE "1Q_t_1039-1048_09"
    INDEX 01 00:09:13
  TRACK 10 AUDIO
    TITLE "1Q_t_1039-1048_10"
    INDEX 01 00:11:36
  TRACK 11 AUDIO
    TITLE "1Q_t_1039-1048_11"
    INDEX 01 00:11:43
  TRACK 12 AUDIO
    TITLE "1Q_t_1039-1048_12"
    INDEX 01 00:16:39
  TRACK 13 AUDIO
    TITLE "1Q_t_1039-1048_13"
    INDEX 01 00:17:11
  TRACK 14 AUDIO
    TITLE "1Q_t_1039-1048_14"
    INDEX 01 00:18:16
  TRACK 15 AUDIO
    TITLE "1Q_t_1039-1048_15"
    INDEX 01 00:18:24
  TRACK 16 AUDIO
    TITLE "1Q_t_1039-1048_16"
    INDEX 01 00:20:62
  TRACK 17 AUDIO
    TITLE "1Q_t_1039-1048_17"
    INDEX 01 00:20:68
  TRACK 18 AUDIO
    TITLE "1Q_t_1039-1048_18"
    INDEX 01 00:24:52
  TRACK 19 AUDIO
    TITLE "1Q_t_1039-1048_19"
    INDEX 01 00:25:20
  TRACK 20 AUDIO
    TITLE "1Q_t_1039-1048_20"
    INDEX 01 00:26:41
  TRACK 21 AUDIO
    TITLE "1Q_t_1039-1048_21"
    INDEX 01 00:26:49
  TRACK 22 AUDIO
    TITLE "1Q_t_1039-1048_22"
    INDEX 01 00:29:67
  TRACK 23 AUDIO
    TITLE "1Q_t_1039-1048_23"
    INDEX 01 00:30:02
  TRACK 24 AUDIO
    TITLE "1Q_t_1039-1048_24"
    INDEX 01 00:33:69
  TRACK 25 AUDIO
    TITLE "1Q_t_1039-1048_25"
    INDEX 01 00:34:43
  TRACK 26 AUDIO
    TITLE "1Q_t_1039-1048_26"
    INDEX 01 00:35:58
  TRACK 27 AUDIO
    TITLE "1Q_t_1039-1048_27"
    INDEX 01 00:35:67
  TRACK 28 AUDIO
    TITLE "1Q_t_1039-1048_28"
    INDEX 01 00:37:53
  TRACK 29 AUDIO
    TITLE "1Q_t_1039-1048_29"
    INDEX 01 00:37:60
  TRACK 30 AUDIO
    TITLE "1Q_t_1039-1048_30"
    INDEX 01 00:42:32
  TRACK 31 AUDIO
    TITLE "1Q_t_1039-1048_31"
    INDEX 01 00:43:02
  TRACK 32 AUDIO
    TITLE "1Q_t_1039-1048_32"
    INDEX 01 00:44:12
  TRACK 33 AUDIO
    TITLE "1Q_t_1039-1048_33"
    INDEX 01 00:44:19
  TRACK 34 AUDIO
    TITLE "1Q_t_1039-1048_34"
    INDEX 01 00:45:38
  TRACK 35 AUDIO
    TITLE "1Q_t_1039-1048_35"
    INDEX 01 00:45:46
  TRACK 36 AUDIO
    TITLE "1Q_t_1039-1048_36"
    INDEX 01 00:49:40
  TRACK 37 AUDIO
    TITLE "1Q_t_1039-1048_37"
    INDEX 01 00:50:12
  TRACK 38 AUDIO
    TITLE "1Q_t_1039-1048_38"
    INDEX 01 00:51:39
  TRACK 39 AUDIO
    TITLE "1Q_t_1039-1048_39"
    INDEX 01 00:51:47
  TRACK 40 AUDIO
    TITLE "1Q_t_1039-1048_40"
    INDEX 01 00:53:20
  TRACK 41 AUDIO
    TITLE "1Q_t_1039-1048_41"
    INDEX 01 00:53:26
  TRACK 42 AUDIO
    TITLE "1Q_t_1039-1048_42"
    INDEX 01 00:57:55
  TRACK 43 AUDIO
    TITLE "1Q_t_1039-1048_43"
    INDEX 01 00:58:25
  TRACK 44 AUDIO
    TITLE "1Q_t_1039-1048_44"
    INDEX 01 00:59:37
  TRACK 45 AUDIO
    TITLE "1Q_t_1039-1048_45"
    INDEX 01 00:59:46
  TRACK 46 AUDIO
    TITLE "1Q_t_1039-1048_46"
    INDEX 01 01:01:53
  TRACK 47 AUDIO
    TITLE "1Q_t_1039-1048_47"
    INDEX 01 01:01:59
  TRACK 48 AUDIO
    TITLE "1Q_t_1039-1048_48"
    INDEX 01 01:07:36
  TRACK 49 AUDIO
    TITLE "1Q_t_1039-1048_49"
    INDEX 01 01:08:06
  TRACK 50 AUDIO
    TITLE "1Q_t_1039-1048_50"
    INDEX 01 01:09:29
  TRACK 51 AUDIO
    TITLE "1Q_t_1039-1048_51"
    INDEX 01 01:09:37
  TRACK 52 AUDIO
    TITLE "1Q_t_1039-1048_52"
    INDEX 01 01:11:46
  TRACK 53 AUDIO
    TITLE "1Q_t_1039-1048_53"
    INDEX 01 01:11:52
  TRACK 54 AUDIO
    TITLE "1Q_t_1039-1048_54"
    INDEX 01 01:16:27
  TRACK 55 AUDIO
    TITLE "1Q_t_1039-1048_55"
    INDEX 01 01:16:74
  TRACK 56 AUDIO
    TITLE "1Q_t_1039-1048_56"
    INDEX 01 01:18:10
  TRACK 57 AUDIO
    TITLE "1Q_t_1039-1048_57"
    INDEX 01 01:18:18
  TRACK 58 AUDIO
    TITLE "1Q_t_1039-1048_58"
    INDEX 01 01:20:72
  TRACK 59 AUDIO
    TITLE "1Q_t_1039-1048_59"
    INDEX 01 01:21:05
  TRACK 60 AUDIO
    TITLE "1Q_t_1039-1048_60"
    INDEX 01 01:26:00
